<svg width="605" height="325" viewBox="0 0 605 325" fill="none" xmlns="http://www.w3.org/2000/svg">
<path d="M301.8 93H334.4L306.4 233H273.8L301.8 93ZM391.025 119.4H346.225L351.625 93H473.625L468.225 119.4H423.625L400.825 233H368.425L391.025 119.4ZM602.858 136.4C602.858 149.467 599.324 160.667 592.258 170C585.191 179.333 575.391 185.933 562.858 189.8L587.258 233H553.058L531.058 193.8H503.458L495.658 233H463.058L491.058 93H548.058C565.391 93 578.858 96.8 588.458 104.4C598.058 112 602.858 122.667 602.858 136.4ZM536.058 168C546.858 168 555.191 165.533 561.058 160.6C567.058 155.667 570.058 148.6 570.058 139.4C570.058 132.733 567.791 127.733 563.258 124.4C558.724 121.067 552.258 119.4 543.858 119.4H518.258L508.458 168H536.058Z" fill="white"/>
<path d="M123.917 196.495C121.882 196.495 120.138 195.623 118.684 194.169L78.275 154.056C75.0771 150.859 70.1349 150.859 66.9371 154.056L2.3984 218.586C-0.799466 221.783 -0.799466 226.725 2.3984 229.922L94.8457 322.356C96.2993 323.809 98.3343 324.681 100.079 324.681L123.917 196.495Z" fill="white"/>
<path d="M244.855 172.371L203.864 131.386C202.41 129.933 200.375 129.061 198.34 129.061C196.305 129.061 194.27 129.933 192.817 131.386L129.731 194.171C128.278 195.625 126.243 196.497 124.208 196.497H123.917L100.079 324.393H100.369C102.404 324.393 104.439 323.521 105.893 322.068L244.564 183.416C247.762 180.51 247.762 175.278 244.855 172.371ZM243.692 182.254L105.021 320.905C104.149 321.777 103.276 322.358 102.114 322.649L125.08 197.95C127.115 197.659 129.15 196.787 130.894 195.334L193.689 132.549C194.852 131.386 196.596 130.805 198.049 130.805C199.794 130.805 201.247 131.386 202.41 132.549L243.401 173.534C244.564 174.696 245.145 176.44 245.145 177.894C245.436 179.638 244.855 181.091 243.692 182.254Z" fill="white"/>
<path d="M121.01 170.916C122.754 172.66 124.789 173.241 127.115 173.241C129.15 173.241 130.894 172.369 132.347 170.916L227.411 75.8657C230.609 72.6683 230.609 67.7269 227.411 64.5294L165.198 2.32539C163.454 0.87202 161.419 0 159.384 0H159.093C157.058 0 155.314 0.87202 153.86 2.32539L58.7966 97.3755C55.5987 100.573 55.5987 105.514 58.7966 108.712L121.01 170.916ZM160.256 1.74404C161.71 2.03471 162.872 2.61606 163.745 3.48808L225.958 65.6921C227.12 66.8548 227.702 68.5989 227.702 70.0522C227.702 71.5056 227.12 73.2496 225.958 74.4123L131.185 169.753C130.603 170.334 129.731 170.916 129.15 171.206L160.256 1.74404Z" fill="white"/>
</svg>
